<svg id="svg" version="1.1" xmlns="http://www.w3.org/2000/svg" xmlns:xlink="http://www.w3.org/1999/xlink" width="400" height="307.58620689655174" viewBox="0, 0, 400,307.58620689655174"><g id="svgg"><path id="path0" d="M208.923 48.305 C 208.923 48.718,208.719 48.923,208.308 48.923 C 207.738 48.923,207.692 49.128,207.692 51.671 C 207.692 54.286,207.659 54.423,207.000 54.517 C 206.351 54.609,206.302 54.782,206.219 57.275 C 206.141 59.618,206.059 59.953,205.527 60.092 C 204.986 60.233,204.923 60.525,204.923 62.873 C 204.923 65.359,204.887 65.501,204.231 65.594 C 203.581 65.686,203.533 65.858,203.450 68.385 C 203.369 70.824,203.304 71.077,202.757 71.077 C 202.194 71.077,202.154 71.304,202.154 74.462 C 202.154 77.577,202.108 77.846,201.571 77.846 C 200.790 77.846,200.687 78.224,200.742 80.884 C 200.784 82.968,200.731 83.178,200.086 83.471 C 199.439 83.766,199.385 83.986,199.385 86.324 C 199.385 88.734,199.349 88.865,198.653 89.040 C 197.968 89.212,197.921 89.364,197.915 91.458 C 197.907 94.524,197.921 94.462,197.231 94.462 C 196.661 94.462,196.615 94.667,196.615 97.231 C 196.615 99.773,196.527 100.071,195.804 99.974 C 195.364 99.915,195.213 100.708,195.222 103.048 C 195.230 105.370,195.190 105.521,194.518 105.689 C 193.861 105.854,193.808 106.020,193.850 107.780 C 193.956 112.318,193.912 112.615,193.124 112.615 C 192.439 112.615,192.401 112.723,192.384 114.692 C 192.358 117.817,192.328 118.157,192.077 118.117 C 191.176 117.975,191.077 118.239,191.077 120.769 C 191.077 123.300,190.977 123.563,190.077 123.421 C 189.802 123.378,189.768 123.597,189.674 126.000 C 189.635 127.015,189.588 128.079,189.570 128.364 C 189.553 128.649,189.252 128.973,188.902 129.084 C 188.368 129.253,188.273 129.517,188.314 130.720 C 188.416 133.741,188.325 134.462,187.839 134.462 C 187.205 134.462,186.823 135.578,186.832 137.408 C 186.844 139.775,186.808 139.918,186.154 140.089 C 185.585 140.238,185.538 140.509,185.538 143.664 C 185.538 146.807,185.492 147.077,184.956 147.077 C 184.241 147.077,184.069 147.789,184.117 150.538 C 184.152 152.497,184.115 152.615,183.462 152.615 C 182.798 152.615,182.769 152.725,182.769 155.210 C 182.769 157.502,182.700 157.827,182.176 157.993 C 181.672 158.153,181.550 158.591,181.370 160.897 C 181.195 163.138,181.070 163.605,180.656 163.575 C 180.237 163.544,180.129 163.995,180.000 166.308 C 179.878 168.496,179.749 169.077,179.385 169.077 C 179.007 169.077,178.907 169.705,178.836 172.538 C 178.749 175.990,178.747 176.000,177.990 176.000 C 177.239 176.000,177.231 176.030,177.231 178.769 C 177.231 181.333,177.185 181.538,176.615 181.538 C 176.046 181.538,176.000 181.744,176.000 184.286 C 176.000 186.902,175.967 187.039,175.308 187.132 C 174.658 187.225,174.610 187.397,174.526 189.923 C 174.446 192.362,174.381 192.615,173.834 192.615 C 173.279 192.615,173.231 192.839,173.231 195.385 C 173.231 198.133,173.225 198.154,172.462 198.154 C 172.038 198.154,171.709 198.258,171.729 198.385 C 172.039 200.347,171.628 203.692,171.077 203.692 C 170.499 203.692,170.462 203.897,170.462 207.077 L 170.462 210.462 169.692 210.462 C 168.929 210.462,168.923 210.482,168.923 213.231 C 168.923 215.795,168.877 216.000,168.308 216.000 C 167.738 216.000,167.692 216.205,167.692 218.769 C 167.692 221.518,167.687 221.538,166.923 221.538 C 166.160 221.538,166.154 221.559,166.154 224.308 C 166.154 226.872,166.108 227.077,165.538 227.077 C 164.969 227.077,164.923 227.282,164.923 229.825 C 164.923 232.440,164.890 232.577,164.231 232.671 C 163.582 232.763,163.533 232.936,163.450 235.429 C 163.372 237.772,163.290 238.107,162.758 238.246 C 162.206 238.390,162.154 238.683,162.154 241.664 C 162.154 244.718,162.115 244.923,161.538 244.923 C 160.844 244.923,160.838 244.945,160.749 247.692 C 160.714 248.792,160.669 249.865,160.650 250.077 C 160.631 250.288,160.338 250.462,160.000 250.462 C 159.475 250.462,159.385 250.667,159.385 251.851 L 159.385 253.241 174.458 253.225 C 182.748 253.216,189.516 253.110,189.498 252.989 C 189.363 252.083,189.607 251.692,190.308 251.692 C 191.071 251.692,191.077 251.672,191.077 248.923 C 191.077 246.359,191.123 246.154,191.692 246.154 C 192.259 246.154,192.308 245.949,192.308 243.572 C 192.308 241.074,192.333 240.983,193.077 240.797 C 193.839 240.605,193.846 240.572,193.846 237.225 C 193.846 233.920,193.921 233.664,194.846 233.810 C 194.973 233.830,195.077 232.600,195.077 231.077 C 195.077 228.328,195.083 228.308,195.846 228.308 C 196.610 228.308,196.615 228.287,196.615 225.538 C 196.615 222.974,196.661 222.769,197.231 222.769 C 197.801 222.769,197.846 222.564,197.846 220.000 C 197.846 217.251,197.852 217.231,198.615 217.231 C 199.379 217.231,199.385 217.210,199.385 214.462 C 199.385 211.897,199.430 211.692,200.000 211.692 C 200.570 211.692,200.615 211.487,200.615 208.923 C 200.615 206.174,200.621 206.154,201.385 206.154 C 202.148 206.154,202.154 206.133,202.154 203.385 C 202.154 200.821,202.199 200.615,202.769 200.615 C 203.335 200.615,203.385 200.410,203.385 198.073 C 203.385 195.731,203.439 195.507,204.077 195.227 C 204.800 194.910,204.835 194.679,204.903 189.769 C 204.920 188.520,205.012 188.308,205.538 188.308 C 206.108 188.308,206.154 188.103,206.154 185.560 C 206.154 182.945,206.187 182.807,206.846 182.714 C 207.496 182.621,207.544 182.450,207.627 179.923 C 207.708 177.484,207.773 177.231,208.320 177.231 C 208.874 177.231,208.923 177.007,208.923 174.483 C 208.923 171.868,208.956 171.730,209.615 171.637 C 210.265 171.545,210.313 171.373,210.397 168.846 C 210.478 166.372,210.536 166.154,211.112 166.154 C 211.641 166.154,211.731 165.973,211.686 165.000 C 211.531 161.655,211.674 160.615,212.287 160.615 C 213.002 160.615,213.294 159.822,213.225 158.070 C 213.121 155.427,213.193 155.077,213.846 155.077 C 214.424 155.077,214.462 154.872,214.462 151.692 L 214.462 148.308 215.236 148.308 L 216.011 148.308 215.929 145.538 C 215.848 142.846,215.866 142.768,216.538 142.769 C 217.205 142.769,217.231 142.666,217.231 140.021 C 217.231 137.406,217.264 137.269,217.923 137.175 C 218.581 137.082,218.615 136.942,218.615 134.384 C 218.615 131.797,218.642 131.692,219.308 131.692 C 219.974 131.692,220.000 131.590,220.000 128.923 C 220.000 126.359,220.046 126.154,220.615 126.154 C 221.185 126.154,221.231 125.949,221.231 123.385 C 221.231 120.636,221.236 120.615,222.000 120.615 C 222.764 120.615,222.769 120.595,222.769 117.846 C 222.769 115.282,222.815 115.077,223.385 115.077 C 223.951 115.077,224.000 114.872,224.000 112.495 C 224.000 109.997,224.025 109.907,224.769 109.720 C 225.531 109.529,225.538 109.495,225.538 106.148 C 225.538 102.844,225.614 102.587,226.538 102.733 C 226.665 102.753,226.769 101.523,226.769 100.000 C 226.769 97.251,226.775 97.231,227.538 97.231 C 228.302 97.231,228.308 97.210,228.308 94.462 C 228.308 91.897,228.353 91.692,228.923 91.692 C 229.493 91.692,229.538 91.487,229.538 88.923 C 229.538 86.174,229.544 86.154,230.308 86.154 C 231.071 86.154,231.077 86.133,231.077 83.385 C 231.077 80.821,231.123 80.615,231.692 80.615 C 232.262 80.615,232.308 80.410,232.308 77.846 C 232.308 75.097,232.313 75.077,233.077 75.077 C 233.840 75.077,233.846 75.056,233.846 72.308 C 233.846 69.744,233.892 69.538,234.462 69.538 C 235.028 69.538,235.077 69.333,235.077 66.956 C 235.077 64.459,235.102 64.368,235.846 64.181 C 236.608 63.990,236.615 63.957,236.615 60.610 C 236.615 57.436,236.653 57.231,237.231 57.231 C 237.801 57.231,237.846 57.026,237.846 54.462 C 237.846 51.699,237.848 51.692,238.630 51.692 C 239.396 51.692,239.412 51.649,239.322 49.769 L 239.231 47.846 224.077 47.766 C 209.078 47.687,208.923 47.693,208.923 48.305 M144.513 76.821 C 144.400 76.933,144.308 77.257,144.308 77.539 C 144.308 77.951,144.035 78.040,142.923 77.990 C 141.654 77.933,141.538 77.989,141.538 78.656 C 141.538 79.429,141.238 79.508,138.720 79.393 C 137.826 79.352,137.552 79.473,137.391 79.978 C 137.280 80.329,137.026 80.633,136.825 80.654 C 136.208 80.720,135.250 80.828,134.846 80.877 C 134.635 80.902,134.462 81.192,134.462 81.521 C 134.462 82.003,134.211 82.137,133.166 82.213 C 132.177 82.285,131.831 82.453,131.705 82.923 C 131.580 83.384,131.288 83.534,130.538 83.519 C 129.988 83.508,129.536 83.646,129.534 83.826 C 129.531 84.050,129.457 84.053,129.303 83.836 C 128.880 83.240,127.851 83.501,127.748 84.231 C 127.649 84.928,127.342 85.036,125.769 84.932 C 125.068 84.886,124.923 85.002,124.923 85.606 C 124.923 86.274,124.806 86.330,123.538 86.277 C 122.274 86.224,122.154 86.282,122.154 86.942 C 122.154 87.620,122.025 87.670,120.077 87.755 C 118.203 87.837,118.006 87.907,118.061 88.469 C 118.113 89.004,117.952 89.087,116.904 89.056 C 115.675 89.021,114.857 89.548,115.222 90.140 C 115.350 90.347,114.867 90.462,113.864 90.462 C 113.008 90.462,112.324 90.565,112.344 90.692 C 112.462 91.440,112.174 91.667,111.000 91.752 C 110.237 91.807,109.676 92.006,109.654 92.231 C 109.633 92.442,109.598 92.754,109.577 92.923 C 109.556 93.093,108.641 93.231,107.538 93.231 C 105.744 93.231,105.538 93.294,105.538 93.846 C 105.538 94.370,105.333 94.462,104.154 94.462 C 102.882 94.462,102.769 94.524,102.769 95.231 C 102.769 95.937,102.656 96.000,101.385 96.000 C 100.205 96.000,100.000 96.091,100.000 96.615 C 100.000 97.173,97.916 97.533,96.231 97.267 C 96.104 97.247,96.000 97.577,96.000 98.000 C 96.000 98.707,95.887 98.769,94.615 98.769 C 93.436 98.769,93.231 98.860,93.231 99.385 C 93.231 99.909,93.026 100.000,91.846 100.000 C 90.574 100.000,90.462 100.063,90.462 100.769 C 90.462 101.510,90.388 101.538,88.482 101.538 C 86.792 101.538,86.475 101.626,86.313 102.137 C 86.172 102.582,85.791 102.759,84.831 102.829 C 83.770 102.906,83.521 103.044,83.442 103.599 C 83.363 104.153,83.115 104.291,82.058 104.368 C 81.051 104.441,80.779 104.579,80.812 105.000 C 80.850 105.479,78.445 105.827,76.846 105.575 C 76.719 105.555,76.615 105.885,76.615 106.308 C 76.615 107.003,76.494 107.077,75.356 107.077 C 74.366 107.077,74.063 107.205,73.940 107.676 C 73.822 108.127,73.467 108.298,72.507 108.368 C 71.452 108.445,71.214 108.582,71.132 109.154 C 71.047 109.753,70.850 109.846,69.671 109.846 C 68.513 109.846,68.308 109.939,68.308 110.462 C 68.308 111.013,68.103 111.077,66.329 111.077 C 64.511 111.077,64.342 111.133,64.252 111.769 C 64.190 112.210,63.930 112.473,63.538 112.493 C 61.643 112.590,61.538 112.628,61.538 113.231 C 61.538 113.755,61.333 113.846,60.154 113.846 C 58.923 113.846,58.769 113.923,58.769 114.538 C 58.769 115.154,58.607 115.235,57.307 115.268 C 54.833 115.331,54.460 115.377,54.498 115.615 C 54.622 116.403,54.363 116.615,53.278 116.615 C 52.357 116.615,52.027 116.765,51.794 117.288 C 51.563 117.806,51.216 117.966,50.285 117.987 C 49.281 118.010,49.060 118.130,48.979 118.699 C 48.889 119.326,48.712 119.385,46.923 119.385 C 45.132 119.385,44.958 119.443,44.868 120.072 C 44.792 120.598,44.554 120.767,43.846 120.794 C 42.272 120.853,42.154 120.905,42.154 121.538 C 42.154 122.061,41.949 122.154,40.791 122.154 C 39.627 122.154,39.413 122.252,39.329 122.822 C 39.241 123.421,39.051 123.487,37.478 123.463 C 35.726 123.437,34.793 123.908,35.222 124.602 C 35.349 124.806,34.929 124.923,34.068 124.923 C 32.925 124.923,32.660 125.042,32.366 125.686 C 32.139 126.185,31.855 126.387,31.547 126.268 C 30.990 126.055,29.527 126.373,29.577 126.698 C 29.710 127.562,29.443 127.692,27.538 127.692 C 25.744 127.692,25.538 127.755,25.538 128.308 C 25.538 128.892,24.806 129.118,23.470 128.948 C 23.264 128.922,23.006 129.251,22.898 129.681 C 22.726 130.368,22.541 130.462,21.351 130.462 C 20.144 130.462,20.000 130.537,20.000 131.173 C 20.000 131.827,19.887 131.876,18.615 131.781 C 17.312 131.683,17.231 131.722,17.231 132.454 C 17.231 133.200,17.156 133.231,15.356 133.231 C 13.740 133.231,13.459 133.316,13.320 133.846 C 13.216 134.245,12.900 134.462,12.423 134.462 L 11.687 134.462 11.767 152.385 L 11.846 170.308 13.923 170.399 C 15.748 170.479,16.000 170.563,16.000 171.091 C 16.000 171.599,16.216 171.692,17.385 171.692 C 18.656 171.692,18.769 171.755,18.769 172.462 C 18.769 173.168,18.882 173.231,20.154 173.231 C 21.333 173.231,21.538 173.322,21.538 173.846 C 21.538 174.185,21.642 174.445,21.769 174.425 C 23.701 174.120,25.538 174.513,25.538 175.231 C 25.538 175.937,25.651 176.000,26.923 176.000 C 28.103 176.000,28.308 176.091,28.308 176.615 C 28.308 177.140,28.513 177.231,29.692 177.231 C 30.957 177.231,31.077 177.296,31.077 177.986 C 31.077 178.704,31.179 178.746,33.154 178.832 C 34.906 178.909,35.217 179.005,35.144 179.444 C 35.075 179.863,35.346 179.984,36.529 180.060 C 37.423 180.117,38.015 180.305,38.038 180.538 C 38.060 180.750,38.094 181.054,38.115 181.213 C 38.137 181.373,38.742 181.546,39.462 181.598 C 40.509 181.673,40.751 181.800,40.679 182.231 C 40.604 182.677,40.825 182.769,41.965 182.769 C 43.159 182.769,43.355 182.861,43.440 183.462 C 43.529 184.091,43.728 184.162,45.615 184.245 C 47.440 184.325,47.692 184.409,47.692 184.937 C 47.692 185.445,47.908 185.538,49.077 185.538 C 50.349 185.538,50.462 185.601,50.462 186.308 C 50.462 187.014,50.574 187.077,51.846 187.077 C 53.026 187.077,53.231 187.168,53.231 187.692 C 53.231 188.244,53.436 188.308,55.209 188.308 C 57.027 188.308,57.196 188.364,57.286 189.000 C 57.372 189.602,57.567 189.692,58.789 189.692 C 60.080 189.692,60.183 189.748,60.061 190.385 C 59.939 191.021,60.042 191.077,61.327 191.077 C 62.544 191.077,62.739 191.167,62.825 191.769 C 62.912 192.387,63.138 192.478,64.923 192.615 C 66.427 192.731,66.923 192.884,66.923 193.231 C 66.923 193.554,67.316 193.721,68.231 193.787 C 68.950 193.839,69.556 194.012,69.577 194.172 C 69.598 194.331,69.633 194.635,69.654 194.846 C 69.676 195.070,70.234 195.270,70.985 195.325 C 71.945 195.394,72.326 195.572,72.467 196.017 C 72.613 196.476,72.939 196.615,73.867 196.615 C 74.979 196.615,75.238 196.824,75.113 197.615 C 75.093 197.742,76.046 197.846,77.231 197.846 C 79.323 197.846,79.385 197.868,79.385 198.615 C 79.385 199.322,79.497 199.385,80.769 199.385 C 81.949 199.385,82.154 199.476,82.154 200.000 C 82.154 200.524,82.359 200.615,83.538 200.615 C 84.810 200.615,84.923 200.678,84.923 201.385 C 84.923 202.126,84.995 202.154,86.923 202.154 C 88.718 202.154,88.923 202.217,88.923 202.769 C 88.923 203.293,89.128 203.385,90.308 203.385 C 91.579 203.385,91.692 203.447,91.692 204.154 C 91.692 204.860,91.805 204.923,93.077 204.923 C 94.256 204.923,94.462 205.014,94.462 205.538 C 94.462 206.095,94.667 206.154,96.615 206.154 C 98.708 206.154,98.769 206.176,98.769 206.923 C 98.769 207.640,98.873 207.692,100.290 207.692 C 101.645 207.692,101.798 207.759,101.692 208.308 C 101.588 208.849,101.739 208.923,102.959 208.923 C 103.721 208.923,104.266 209.049,104.171 209.203 C 103.734 209.910,104.401 210.462,105.691 210.462 C 106.757 210.462,107.000 210.564,106.966 211.000 C 106.930 211.456,107.242 211.552,109.000 211.629 C 110.975 211.716,111.077 211.757,111.077 212.476 C 111.077 213.165,111.197 213.231,112.462 213.231 C 113.641 213.231,113.846 213.322,113.846 213.846 C 113.846 214.370,114.051 214.462,115.231 214.462 C 116.503 214.462,116.615 214.524,116.615 215.231 C 116.615 215.972,116.689 216.000,118.595 216.000 C 120.304 216.000,120.601 216.084,120.769 216.615 C 120.920 217.091,121.235 217.231,122.153 217.231 C 123.152 217.231,123.358 217.342,123.440 217.923 C 123.522 218.499,123.759 218.631,124.846 218.710 C 125.903 218.786,126.154 218.919,126.154 219.402 C 126.154 219.937,126.380 220.000,128.308 220.000 C 130.400 220.000,130.462 220.022,130.462 220.769 C 130.462 221.476,130.574 221.538,131.846 221.538 C 133.133 221.538,133.396 221.723,133.267 222.538 C 133.247 222.665,133.854 222.769,134.615 222.769 C 135.887 222.769,136.000 222.832,136.000 223.538 C 136.000 224.245,136.113 224.308,137.385 224.308 C 138.564 224.308,138.769 224.399,138.769 224.923 C 138.769 225.475,138.974 225.538,140.748 225.538 C 142.565 225.538,142.734 225.595,142.825 226.231 C 142.906 226.806,143.144 226.939,144.231 227.018 C 145.288 227.094,145.538 227.227,145.538 227.710 C 145.538 228.240,145.763 228.308,147.538 228.308 L 149.538 228.308 149.538 208.308 C 149.538 188.513,149.532 188.308,148.923 188.308 C 148.513 188.308,148.308 188.103,148.308 187.692 C 148.308 187.170,148.103 187.077,146.944 187.077 C 145.765 187.077,145.568 186.984,145.483 186.385 C 145.394 185.756,145.195 185.684,143.308 185.601 C 141.483 185.521,141.231 185.437,141.231 184.909 C 141.231 184.374,141.010 184.308,139.231 184.308 C 137.303 184.308,137.231 184.280,137.231 183.538 C 137.231 182.832,137.118 182.769,135.846 182.769 C 134.667 182.769,134.462 182.678,134.462 182.154 C 134.462 181.602,134.256 181.538,132.483 181.538 C 130.665 181.538,130.496 181.482,130.406 180.846 C 130.324 180.271,130.087 180.138,129.000 180.059 C 127.943 179.983,127.692 179.850,127.692 179.367 C 127.692 178.833,127.466 178.769,125.560 178.769 C 123.583 178.769,123.420 178.719,123.329 178.077 C 123.245 177.483,123.045 177.385,121.923 177.385 C 120.771 177.385,120.615 177.302,120.615 176.692 C 120.615 176.045,120.484 176.000,118.615 176.000 C 116.821 176.000,116.615 175.937,116.615 175.385 C 116.615 174.746,116.466 174.680,114.923 174.640 C 114.209 174.621,113.978 174.458,113.902 173.923 C 113.811 173.281,113.648 173.231,111.671 173.231 C 109.587 173.231,109.538 173.213,109.538 172.441 C 109.538 171.692,109.467 171.658,108.154 171.775 C 106.873 171.890,106.769 171.845,106.769 171.180 C 106.769 170.501,106.660 170.462,104.769 170.462 C 102.981 170.462,102.769 170.397,102.769 169.852 C 102.769 169.212,101.797 168.794,100.734 168.977 C 100.328 169.047,100.124 168.869,100.056 168.385 C 99.965 167.750,99.795 167.692,98.000 167.692 C 96.205 167.692,96.035 167.635,95.944 167.000 C 95.869 166.470,95.630 166.297,94.923 166.264 C 94.415 166.240,93.843 166.205,93.651 166.187 C 93.459 166.169,93.230 165.877,93.142 165.538 C 93.001 165.002,92.722 164.923,90.973 164.923 C 89.126 164.923,88.958 164.868,88.868 164.231 C 88.784 163.645,88.581 163.538,87.538 163.538 C 86.496 163.538,86.293 163.432,86.209 162.846 C 86.119 162.210,85.950 162.154,84.132 162.154 C 82.359 162.154,82.154 162.090,82.154 161.538 C 82.154 161.200,81.981 160.907,81.769 160.888 C 81.558 160.868,81.246 160.820,81.077 160.781 C 80.908 160.741,80.458 160.688,80.077 160.662 C 79.597 160.630,79.385 160.420,79.385 159.977 C 79.385 159.414,79.213 159.345,77.923 159.389 C 75.292 159.479,75.077 159.431,75.077 158.751 C 75.077 158.403,74.938 158.203,74.769 158.308 C 74.600 158.412,74.462 158.351,74.462 158.172 C 74.462 157.993,74.315 157.846,74.136 157.846 C 73.956 157.846,73.888 157.973,73.984 158.128 C 74.080 158.283,73.742 158.253,73.233 158.060 C 72.682 157.852,72.308 157.490,72.308 157.163 C 72.308 156.694,72.020 156.615,70.308 156.615 C 68.513 156.615,68.308 156.552,68.308 156.000 C 68.308 155.525,68.103 155.385,67.410 155.385 C 66.205 155.385,65.538 155.101,65.538 154.588 C 65.538 154.036,64.360 153.756,62.623 153.894 C 61.350 153.995,61.231 153.945,61.231 153.310 C 61.231 152.708,61.071 152.615,60.036 152.615 C 59.063 152.615,58.808 152.490,58.663 151.937 C 58.433 151.054,58.509 151.001,59.985 151.021 C 61.018 151.035,61.231 150.937,61.231 150.442 C 61.231 149.941,61.451 149.846,62.615 149.846 C 63.887 149.846,64.000 149.783,64.000 149.077 C 64.000 148.330,64.062 148.308,66.154 148.308 C 68.103 148.308,68.308 148.249,68.308 147.692 C 68.308 147.160,68.513 147.077,69.821 147.077 C 71.730 147.077,72.308 146.855,72.308 146.121 C 72.308 145.594,73.534 145.295,74.846 145.502 C 74.973 145.522,75.077 145.268,75.077 144.938 C 75.077 144.416,75.329 144.325,77.000 144.245 C 78.653 144.167,78.966 144.057,79.227 143.462 C 79.495 142.850,79.754 142.769,81.458 142.769 C 83.160 142.769,83.385 142.700,83.385 142.172 C 83.385 141.688,83.635 141.556,84.692 141.479 C 85.779 141.401,86.017 141.268,86.098 140.692 C 86.189 140.057,86.358 140.000,88.155 140.000 C 89.824 140.000,90.140 139.912,90.302 139.402 C 90.443 138.957,90.824 138.779,91.785 138.709 C 92.856 138.631,93.094 138.497,93.175 137.923 C 93.266 137.287,93.435 137.231,95.252 137.231 C 97.026 137.231,97.231 137.167,97.231 136.615 C 97.231 136.277,97.404 135.990,97.615 135.978 C 97.827 135.965,98.692 135.931,99.538 135.901 C 100.880 135.853,101.090 135.757,101.175 135.154 C 101.260 134.555,101.457 134.462,102.637 134.462 C 103.784 134.462,104.000 134.366,104.000 133.860 C 104.000 133.332,104.252 133.248,106.077 133.168 C 107.964 133.085,108.163 133.014,108.252 132.385 C 108.337 131.786,108.534 131.692,109.714 131.692 C 110.872 131.692,111.077 131.600,111.077 131.077 C 111.077 130.423,111.349 130.360,113.769 130.456 C 114.983 130.504,115.077 130.451,115.077 129.716 C 115.077 128.944,115.131 128.923,117.106 128.923 C 118.858 128.923,119.156 128.841,119.291 128.324 C 119.409 127.873,119.764 127.702,120.724 127.632 C 121.779 127.555,122.017 127.418,122.098 126.846 C 122.200 126.128,122.706 126.012,125.154 126.146 C 125.979 126.191,126.154 126.089,126.154 125.562 C 126.154 124.981,126.334 124.923,128.148 124.923 C 130.018 124.923,130.154 124.875,130.335 124.154 C 130.504 123.479,130.695 123.385,131.880 123.385 C 133.026 123.385,133.231 123.291,133.231 122.769 C 133.231 122.300,133.436 122.154,134.092 122.154 C 134.566 122.154,135.120 121.988,135.323 121.785 C 135.610 121.497,135.692 121.502,135.692 121.806 C 135.692 122.518,137.069 122.056,137.175 121.308 C 137.260 120.709,137.457 120.615,138.637 120.615 C 139.795 120.615,140.000 120.523,140.000 120.000 C 140.000 119.448,140.205 119.385,142.000 119.385 C 143.928 119.385,144.000 119.357,144.000 118.615 C 144.000 117.868,144.062 117.846,146.154 117.846 C 148.103 117.846,148.308 117.788,148.308 117.231 C 148.308 116.821,148.513 116.615,148.923 116.615 C 149.532 116.615,149.538 116.410,149.538 96.615 L 149.538 76.615 147.128 76.615 C 145.803 76.615,144.626 76.708,144.513 76.821 M249.128 76.821 C 249.015 76.933,248.923 85.933,248.923 96.821 L 248.923 116.615 250.308 116.615 C 251.487 116.615,251.692 116.707,251.692 117.231 C 251.692 117.788,251.897 117.846,253.846 117.846 C 255.938 117.846,256.000 117.868,256.000 118.615 C 256.000 119.322,256.113 119.385,257.385 119.385 C 258.564 119.385,258.769 119.476,258.769 120.000 C 258.769 120.552,258.974 120.615,260.769 120.615 C 262.697 120.615,262.769 120.643,262.769 121.385 C 262.769 122.091,262.882 122.154,264.154 122.154 C 265.333 122.154,265.538 122.245,265.538 122.769 C 265.538 123.321,265.744 123.385,267.538 123.385 C 268.641 123.385,269.556 123.523,269.577 123.692 C 269.598 123.862,269.633 124.173,269.654 124.385 C 269.676 124.608,270.234 124.809,270.985 124.863 C 271.945 124.933,272.326 125.111,272.467 125.555 C 272.629 126.066,272.946 126.154,274.636 126.154 C 276.532 126.154,276.615 126.186,276.615 126.909 C 276.615 127.627,276.717 127.669,278.692 127.755 C 280.293 127.825,280.769 127.952,280.769 128.308 C 280.769 128.630,281.159 128.798,282.058 128.863 C 283.115 128.940,283.363 129.078,283.442 129.632 C 283.529 130.241,283.744 130.317,285.615 130.399 C 287.563 130.484,287.860 130.633,287.729 131.462 C 287.709 131.588,288.315 131.692,289.077 131.692 C 290.349 131.692,290.462 131.755,290.462 132.462 C 290.462 133.203,290.533 133.231,292.462 133.231 C 294.256 133.231,294.462 133.294,294.462 133.846 C 294.462 134.370,294.667 134.462,295.846 134.462 C 297.000 134.462,297.231 134.559,297.231 135.044 C 297.231 135.791,297.808 136.000,299.871 136.000 C 301.333 136.000,301.538 136.076,301.538 136.615 C 301.538 137.167,301.744 137.231,303.517 137.231 C 305.335 137.231,305.504 137.287,305.594 137.923 C 305.676 138.499,305.913 138.631,307.000 138.710 C 308.057 138.786,308.308 138.919,308.308 139.402 C 308.308 139.936,308.534 140.000,310.409 140.000 C 312.390 140.000,312.509 140.040,312.486 140.692 C 312.464 141.316,312.606 141.385,313.916 141.385 C 315.256 141.385,315.360 141.439,315.244 142.077 C 315.123 142.740,315.207 142.769,317.230 142.769 C 319.186 142.769,319.349 142.820,319.440 143.462 C 319.515 143.990,319.757 144.165,320.462 144.202 C 320.969 144.229,321.558 144.264,321.769 144.279 C 321.981 144.295,322.154 144.585,322.154 144.923 C 322.154 145.475,322.359 145.538,324.132 145.538 C 325.950 145.538,326.119 145.595,326.209 146.231 C 326.299 146.860,326.497 146.931,328.385 147.014 C 330.209 147.094,330.462 147.178,330.462 147.706 C 330.462 148.214,330.677 148.308,331.846 148.308 C 333.118 148.308,333.231 148.370,333.231 149.077 C 333.231 149.817,333.305 149.846,335.195 149.846 C 336.900 149.846,337.180 149.927,337.320 150.462 C 337.448 150.950,337.740 151.077,338.740 151.077 C 339.795 151.077,340.000 151.177,340.000 151.692 C 340.000 152.611,339.897 152.773,339.333 152.735 C 338.991 152.711,338.857 152.890,338.931 153.273 C 339.030 153.784,338.828 153.846,337.077 153.846 C 335.435 153.846,335.038 153.951,334.663 154.487 C 334.382 154.889,333.744 155.190,332.953 155.296 C 331.987 155.426,331.692 155.600,331.692 156.041 C 331.692 156.543,331.440 156.615,329.692 156.615 C 327.897 156.615,327.692 156.679,327.692 157.231 C 327.692 157.653,327.475 157.857,327.000 157.882 C 326.619 157.901,326.169 157.949,326.000 157.989 C 325.831 158.028,325.519 158.081,325.308 158.107 C 325.096 158.133,324.923 158.424,324.923 158.755 C 324.923 159.283,324.671 159.368,322.846 159.447 C 320.938 159.531,320.776 159.591,320.858 160.184 C 320.938 160.769,320.807 160.824,319.473 160.770 C 317.703 160.699,316.615 161.047,316.615 161.685 C 316.615 162.036,316.266 162.154,315.231 162.154 C 313.997 162.154,313.846 162.230,313.846 162.851 C 313.846 163.497,313.723 163.544,312.149 163.493 C 310.517 163.440,309.538 163.869,309.538 164.637 C 309.538 164.795,308.985 164.923,308.308 164.923 C 307.175 164.923,306.915 165.128,307.040 165.923 C 307.061 166.050,306.800 166.166,306.462 166.181 C 305.267 166.235,303.381 166.363,303.077 166.412 C 302.908 166.439,302.769 166.738,302.769 167.077 C 302.769 167.601,302.564 167.692,301.385 167.692 C 300.205 167.692,300.000 167.783,300.000 168.308 C 300.000 168.968,300.009 168.965,297.692 169.032 C 296.347 169.071,296.141 169.164,296.056 169.769 C 295.971 170.366,295.773 170.462,294.615 170.462 C 293.463 170.462,293.260 170.558,293.175 171.146 C 293.087 171.759,292.887 171.835,291.231 171.878 C 288.968 171.936,288.914 171.945,288.960 172.231 C 289.085 173.027,288.825 173.231,287.685 173.231 C 286.653 173.231,286.398 173.357,286.160 173.985 C 285.947 174.545,285.697 174.705,285.190 174.608 C 284.814 174.535,284.324 174.628,284.100 174.814 C 283.872 175.003,283.692 175.023,283.692 174.858 C 283.692 174.235,282.307 174.665,282.211 175.318 C 282.125 175.900,281.886 175.983,280.057 176.063 C 278.197 176.145,278.006 176.214,278.062 176.782 C 278.116 177.335,277.952 177.408,276.681 177.397 C 275.746 177.389,275.223 177.520,275.196 177.769 C 275.173 177.981,275.137 178.292,275.115 178.462 C 275.094 178.631,274.179 178.769,273.077 178.769 C 271.282 178.769,271.077 178.832,271.077 179.385 C 271.077 179.909,270.872 180.000,269.692 180.000 C 268.421 180.000,268.308 180.063,268.308 180.769 C 268.308 181.506,268.228 181.538,266.433 181.538 C 264.817 181.538,264.536 181.623,264.397 182.154 C 264.267 182.651,263.977 182.769,262.887 182.769 C 261.654 182.769,261.538 182.835,261.538 183.538 C 261.538 184.286,261.477 184.308,259.385 184.308 C 258.200 184.308,257.247 184.412,257.267 184.538 C 257.396 185.354,257.133 185.538,255.846 185.538 C 254.574 185.538,254.462 185.601,254.462 186.308 C 254.462 187.049,254.390 187.077,252.462 187.077 C 250.667 187.077,250.462 187.140,250.462 187.692 C 250.462 188.144,250.256 188.308,249.692 188.308 L 248.923 188.308 248.923 208.308 L 248.923 228.308 251.077 228.308 C 253.026 228.308,253.231 228.249,253.231 227.692 C 253.231 227.160,253.436 227.077,254.744 227.077 C 256.653 227.077,257.231 226.855,257.231 226.121 C 257.231 225.636,257.462 225.538,258.615 225.538 C 259.795 225.538,260.000 225.447,260.000 224.923 C 260.000 224.554,260.215 224.296,260.538 224.277 C 260.835 224.261,261.423 224.226,261.846 224.200 C 262.392 224.167,262.644 223.953,262.714 223.462 C 262.804 222.826,262.973 222.769,264.791 222.769 C 266.545 222.769,266.769 222.701,266.769 222.172 C 266.769 221.688,267.020 221.556,268.077 221.479 C 269.164 221.401,269.401 221.268,269.483 220.692 C 269.568 220.093,269.765 220.000,270.944 220.000 C 272.103 220.000,272.308 219.907,272.308 219.385 C 272.308 218.860,272.513 218.769,273.692 218.769 C 274.964 218.769,275.077 218.707,275.077 218.000 C 275.077 217.257,275.147 217.231,277.106 217.231 C 278.858 217.231,279.156 217.149,279.291 216.632 C 279.409 216.181,279.764 216.009,280.724 215.939 C 281.779 215.862,282.017 215.726,282.098 215.154 C 282.183 214.555,282.380 214.462,283.560 214.462 C 284.718 214.462,284.923 214.369,284.923 213.846 C 284.923 213.363,285.138 213.225,285.923 213.202 C 288.655 213.125,288.767 213.094,288.868 212.385 C 288.972 211.651,289.110 211.598,290.692 211.685 C 291.517 211.730,291.692 211.627,291.692 211.100 C 291.692 210.548,291.880 210.462,293.077 210.462 C 294.349 210.462,294.462 210.399,294.462 209.692 C 294.462 208.952,294.535 208.923,296.441 208.923 C 298.150 208.923,298.447 208.839,298.615 208.308 C 298.767 207.830,299.081 207.692,300.021 207.692 C 301.106 207.692,301.231 207.613,301.231 206.923 C 301.231 206.217,301.344 206.154,302.615 206.154 C 303.795 206.154,304.000 206.063,304.000 205.538 C 304.000 205.014,304.205 204.923,305.385 204.923 C 306.656 204.923,306.769 204.860,306.769 204.154 C 306.769 203.407,306.831 203.385,308.923 203.385 C 310.851 203.385,311.077 203.322,311.077 202.787 C 311.077 202.304,311.327 202.171,312.385 202.095 C 313.472 202.016,313.709 201.883,313.791 201.308 C 313.876 200.709,314.073 200.615,315.252 200.615 C 316.410 200.615,316.615 200.523,316.615 200.000 C 316.615 199.448,316.821 199.385,318.615 199.385 C 320.544 199.385,320.615 199.357,320.615 198.615 C 320.615 197.909,320.728 197.846,322.000 197.846 C 323.179 197.846,323.385 197.755,323.385 197.231 C 323.385 196.708,323.590 196.615,324.748 196.615 C 325.927 196.615,326.124 196.522,326.209 195.923 C 326.297 195.309,326.456 195.243,327.615 195.334 C 328.843 195.431,328.923 195.389,328.923 194.642 C 328.923 193.814,329.486 193.668,332.050 193.834 C 332.628 193.871,332.926 193.705,333.065 193.268 C 333.213 192.801,333.578 192.626,334.554 192.555 C 335.625 192.478,335.863 192.343,335.944 191.769 C 336.030 191.170,336.227 191.077,337.406 191.077 C 338.564 191.077,338.769 190.984,338.769 190.462 C 338.769 189.895,340.017 189.583,341.340 189.820 C 341.997 189.938,342.769 189.442,342.769 188.902 C 342.769 188.411,342.989 188.308,344.029 188.308 C 345.030 188.308,345.321 188.181,345.449 187.692 C 345.538 187.354,345.836 187.063,346.113 187.047 C 346.389 187.030,346.962 186.995,347.385 186.970 C 347.930 186.937,348.182 186.722,348.252 186.231 C 348.342 185.595,348.511 185.538,350.329 185.538 C 352.214 185.538,352.308 185.503,352.308 184.798 C 352.308 184.211,352.434 184.091,352.918 184.217 C 353.951 184.487,355.077 184.050,355.077 183.379 C 355.077 182.861,355.286 182.769,356.462 182.769 C 357.641 182.769,357.846 182.678,357.846 182.154 C 357.846 181.630,358.051 181.538,359.231 181.538 C 360.503 181.538,360.615 181.476,360.615 180.769 C 360.615 180.026,360.685 180.000,362.644 180.000 C 364.396 180.000,364.694 179.918,364.830 179.401 C 364.948 178.950,365.303 178.778,366.262 178.708 C 367.317 178.632,367.556 178.495,367.637 177.923 C 367.722 177.324,367.919 177.231,369.098 177.231 C 370.256 177.231,370.462 177.138,370.462 176.615 C 370.462 176.147,370.667 176.000,371.323 176.000 C 371.797 176.000,372.351 175.834,372.554 175.631 C 372.841 175.344,372.923 175.348,372.923 175.652 C 372.923 176.364,374.300 175.902,374.406 175.154 C 374.491 174.555,374.688 174.462,375.868 174.462 C 377.026 174.462,377.231 174.369,377.231 173.846 C 377.231 173.322,377.436 173.231,378.615 173.231 C 379.887 173.231,380.000 173.168,380.000 172.462 C 380.000 171.720,380.072 171.692,382.000 171.692 C 383.795 171.692,384.000 171.629,384.000 171.077 C 384.000 170.443,384.386 170.315,385.928 170.435 L 386.778 170.502 386.764 152.482 L 386.750 134.462 385.375 134.462 C 384.205 134.462,384.000 134.370,384.000 133.846 C 384.000 133.323,383.795 133.231,382.637 133.231 C 381.457 133.231,381.260 133.137,381.175 132.538 C 381.096 131.980,380.875 131.843,380.028 131.827 C 379.240 131.813,378.918 131.641,378.731 131.135 C 378.509 130.536,378.258 130.462,376.471 130.462 C 374.550 130.462,374.462 130.429,374.462 129.716 C 374.462 129.028,374.357 128.977,373.077 129.045 C 371.813 129.111,371.692 129.055,371.692 128.405 C 371.692 127.765,371.550 127.692,370.308 127.692 C 369.049 127.692,368.923 127.625,368.923 126.949 C 368.923 126.236,368.843 126.207,367.000 126.256 C 365.222 126.304,365.070 126.256,364.979 125.615 C 364.894 125.018,364.696 124.923,363.538 124.923 C 362.381 124.923,362.183 124.828,362.098 124.231 C 362.014 123.636,361.815 123.539,360.692 123.542 C 359.538 123.545,359.385 123.464,359.385 122.850 C 359.385 122.230,359.233 122.154,358.000 122.154 C 356.821 122.154,356.615 122.063,356.615 121.538 C 356.615 121.175,356.395 120.904,356.077 120.876 C 355.781 120.850,354.985 120.796,354.308 120.756 C 353.631 120.715,352.904 120.667,352.692 120.649 C 352.481 120.630,352.308 120.338,352.308 120.000 C 352.308 119.477,352.103 119.385,350.944 119.385 C 349.765 119.385,349.568 119.291,349.483 118.692 C 349.399 118.098,349.199 118.000,348.077 118.000 C 346.926 118.000,346.769 117.917,346.769 117.308 C 346.769 116.661,346.638 116.615,344.769 116.615 C 343.012 116.615,342.769 116.545,342.769 116.033 C 342.769 115.426,341.998 114.947,341.508 115.250 C 341.018 115.553,340.073 115.081,339.908 114.451 C 339.783 113.974,339.484 113.846,338.490 113.846 C 337.453 113.846,337.231 113.742,337.231 113.255 C 337.231 112.645,335.711 112.069,335.099 112.448 C 334.564 112.779,333.293 112.273,333.135 111.666 C 333.015 111.207,332.703 111.077,331.721 111.077 C 330.667 111.077,330.462 110.977,330.462 110.462 C 330.462 109.939,330.256 109.846,329.098 109.846 C 327.919 109.846,327.722 109.753,327.637 109.154 C 327.547 108.525,327.349 108.453,325.462 108.371 C 323.637 108.291,323.385 108.207,323.385 107.678 C 323.385 107.171,323.169 107.077,322.000 107.077 C 320.728 107.077,320.615 107.014,320.615 106.308 C 320.615 105.601,320.503 105.538,319.231 105.538 C 318.051 105.538,317.846 105.447,317.846 104.923 C 317.846 104.371,317.641 104.308,315.846 104.308 C 313.918 104.308,313.846 104.280,313.846 103.538 C 313.846 102.832,313.733 102.769,312.462 102.769 C 311.282 102.769,311.077 102.678,311.077 102.154 C 311.077 101.630,310.872 101.538,309.692 101.538 C 308.421 101.538,308.308 101.476,308.308 100.769 C 308.308 100.063,308.195 100.000,306.923 100.000 C 305.744 100.000,305.538 99.909,305.538 99.385 C 305.538 98.828,305.333 98.769,303.385 98.769 C 301.292 98.769,301.231 98.747,301.231 98.000 C 301.231 97.308,301.108 97.231,300.000 97.231 C 298.974 97.231,298.769 97.128,298.769 96.615 C 298.769 96.093,298.564 96.000,297.406 96.000 C 296.227 96.000,296.030 95.907,295.944 95.308 C 295.855 94.679,295.656 94.607,293.769 94.524 C 291.917 94.443,291.692 94.366,291.692 93.809 C 291.692 93.297,291.510 93.194,290.692 93.238 C 289.062 93.328,288.923 93.267,288.923 92.462 C 288.923 91.755,288.810 91.692,287.538 91.692 C 286.359 91.692,286.154 91.601,286.154 91.077 C 286.154 90.525,285.949 90.462,284.175 90.462 C 282.358 90.462,282.189 90.405,282.098 89.769 C 282.023 89.237,281.787 89.069,281.077 89.042 C 279.486 88.982,279.385 88.938,279.385 88.308 C 279.385 87.783,279.179 87.692,278.000 87.692 C 276.837 87.692,276.615 87.597,276.615 87.098 C 276.615 86.376,276.038 86.196,273.923 86.259 C 272.438 86.304,272.307 86.252,272.308 85.615 C 272.308 85.000,272.154 84.923,270.923 84.923 C 269.640 84.923,269.538 84.865,269.538 84.131 C 269.538 83.458,269.411 83.347,268.692 83.394 C 267.088 83.500,266.769 83.396,266.769 82.769 C 266.769 82.217,266.564 82.154,264.769 82.154 C 262.834 82.154,262.769 82.128,262.769 81.375 C 262.769 80.638,262.695 80.603,261.385 80.724 C 260.095 80.844,260.000 80.802,260.000 80.118 C 260.000 79.454,259.869 79.385,258.615 79.385 C 257.436 79.385,257.231 79.293,257.231 78.769 C 257.231 78.431,257.058 78.133,256.846 78.108 C 256.635 78.083,256.254 78.035,256.000 78.000 C 255.746 77.965,255.296 77.917,255.000 77.892 C 254.682 77.865,254.462 77.594,254.462 77.231 C 254.462 76.609,249.705 76.243,249.128 76.821 " stroke="none" fill="#842424" fill-rule="evenodd"></path><path id="path1" d="" stroke="none" fill="#882424" fill-rule="evenodd"></path><path id="path2" d="" stroke="none" fill="#882424" fill-rule="evenodd"></path><path id="path3" d="" stroke="none" fill="#882424" fill-rule="evenodd"></path><path id="path4" d="" stroke="none" fill="#882424" fill-rule="evenodd"></path></g></svg>